<svg width="25" height="25" viewBox="0 0 25 25" fill="none" xmlns="http://www.w3.org/2000/svg">
<path d="M19 4.25H16.75V3.5C16.75 3.10218 16.592 2.72064 16.3107 2.43934C16.0294 2.15804 15.6478 2 15.25 2H9.25C8.85218 2 8.47064 2.15804 8.18934 2.43934C7.90804 2.72064 7.75 3.10218 7.75 3.5V4.25H5.5C5.10218 4.25 4.72064 4.40804 4.43934 4.68934C4.15804 4.97064 4 5.35218 4 5.75V21.5C4 21.8978 4.15804 22.2794 4.43934 22.5607C4.72064 22.842 5.10218 23 5.5 23H19C19.3978 23 19.7794 22.842 20.0607 22.5607C20.342 22.2794 20.5 21.8978 20.5 21.5V5.75C20.5 5.35218 20.342 4.97064 20.0607 4.68934C19.7794 4.40804 19.3978 4.25 19 4.25ZM9.25 3.5H15.25V6.5H9.25V3.5ZM19 21.5H5.5V5.75H7.75V8H16.75V5.75H19V21.5Z" fill="#60A5FA"/>
<path d="M10.7188 15.7656L7.97016 12.9609L6.89062 14.0625L10.7188 17.9688L17.6094 10.9375L16.5298 9.82812L10.7188 15.7656Z" fill="#60A5FA"/>
</svg>
