<svg width="24" height="23" viewBox="0 0 24 23" fill="none" xmlns="http://www.w3.org/2000/svg">
<path d="M21 10.9979C21.0028 12.7847 20.4714 14.5315 19.474 16.0139C18.6514 17.2409 17.5391 18.2463 16.2356 18.9412C14.932 19.6361 13.4772 19.999 12 19.9979C10.5228 19.999 9.06804 19.6361 7.76444 18.9412C6.46085 18.2463 5.34858 17.2409 4.526 16.0139C3.74273 14.8463 3.2439 13.5115 3.06951 12.1164C2.89511 10.7212 3.05 9.30467 3.52175 7.9802C3.9935 6.65573 4.769 5.46021 5.78607 4.48947C6.80314 3.51873 8.0335 2.79978 9.37851 2.39025C10.7235 1.98072 12.1458 1.89201 13.5312 2.13122C14.9167 2.37043 16.2269 2.93091 17.3567 3.76773C18.4865 4.60455 19.4046 5.69444 20.0373 6.95002C20.67 8.20559 20.9997 9.59194 21 10.9979Z" stroke="#60A5FA" stroke-width="1.5"/>
<path d="M13.25 7.99805C13.25 8.68805 12.69 9.24805 12 9.24805V10.748C12.7294 10.748 13.4288 10.4583 13.9446 9.94259C14.4603 9.42687 14.75 8.72739 14.75 7.99805H13.25ZM12 9.24805C11.31 9.24805 10.75 8.68805 10.75 7.99805H9.25002C9.25002 8.72739 9.53975 9.42687 10.0555 9.94259C10.5712 10.4583 11.2707 10.748 12 10.748V9.24805ZM10.75 7.99805C10.75 7.30805 11.31 6.74805 12 6.74805V5.24805C11.2707 5.24805 10.5712 5.53778 10.0555 6.0535C9.53975 6.56923 9.25002 7.2687 9.25002 7.99805H10.75ZM12 6.74805C12.69 6.74805 13.25 7.30805 13.25 7.99805H14.75C14.75 7.2687 14.4603 6.56923 13.9446 6.0535C13.4288 5.53778 12.7294 5.24805 12 5.24805V6.74805ZM5.16602 16.854L4.44702 16.64L4.33002 17.032L4.59702 17.342L5.16602 16.854ZM18.834 16.854L19.404 17.343L19.67 17.033L19.553 16.64L18.834 16.854ZM9.00002 14.748H15V13.248H9.00002V14.748ZM9.00002 13.248C7.97704 13.2478 6.9813 13.5778 6.16095 14.1889C5.3406 14.8001 4.73948 15.6598 4.44702 16.64L5.88502 17.068C6.08527 16.3975 6.49659 15.8095 7.05783 15.3915C7.61906 14.9735 8.30023 14.7479 9.00002 14.748V13.248ZM12 19.248C10.8094 19.2494 9.63273 18.9924 8.5511 18.4949C7.46947 17.9973 6.50868 17.271 5.73502 16.366L4.59702 17.342C5.51148 18.411 6.64686 19.27 7.92491 19.8578C9.20295 20.4457 10.5933 20.7494 12 20.748V19.248ZM15 14.748C16.47 14.748 17.715 15.726 18.115 17.068L19.553 16.64C19.2606 15.6598 18.6594 14.8001 17.8391 14.1889C17.0187 13.5778 16.023 13.2478 15 13.248V14.748ZM18.265 16.366C17.4914 17.271 16.5306 17.9973 15.4489 18.4949C14.3673 18.9924 13.1906 19.2494 12 19.248V20.748C13.4068 20.7494 14.7971 20.4457 16.0751 19.8578C17.3532 19.27 18.4896 18.412 19.404 17.343L18.265 16.366Z" fill="#60A5FA"/>
</svg>
